<?xml version="1.0" encoding="iso-8859-1"?>
<!-- Generator: Adobe Illustrator 16.0.0, SVG Export Plug-In . SVG Version: 6.00 Build 0)  -->
<!DOCTYPE svg PUBLIC "-//W3C//DTD SVG 1.1//EN" "http://www.w3.org/Graphics/SVG/1.1/DTD/svg11.dtd">
<svg version="1.1" id="Capa_1" xmlns="http://www.w3.org/2000/svg" xmlns:xlink="http://www.w3.org/1999/xlink" x="0px" y="0px"
	 width="112px" height="112px" viewBox="0 0 112 112" style="enable-background:new 0 0 112 112;" xml:space="preserve">
<g>
	<path d="M51.333,0.193L0,18.86v61.181l60.666,31.76v0.006L112,80.045v-0.004v-57.7v-0.167L51.333,0.193z M97.641,47.341
		l-12.608,6.653c-0.341,0.183-0.69,0.263-1.026,0.253c-0.783-0.02-1.477-0.537-1.74-1.414c-0.377-1.246,0.242-2.749,1.392-3.352
		l12.608-6.655c1.147-0.615,2.391-0.089,2.769,1.157C99.409,45.235,98.789,46.738,97.641,47.341z M61.436,45.473L10.391,24.25
		l18.762-6.822L79.79,37.076L61.436,45.473z M60.312,101.896l-51.7-27.068V24.895l0.494-0.179l51.559,21.437v55.523L60.312,101.896z
		 M87.719,33.448L38.07,14.185L51.338,9.36l49.688,18.003L87.719,33.448z"/>
</g>
<g>
</g>
<g>
</g>
<g>
</g>
<g>
</g>
<g>
</g>
<g>
</g>
<g>
</g>
<g>
</g>
<g>
</g>
<g>
</g>
<g>
</g>
<g>
</g>
<g>
</g>
<g>
</g>
<g>
</g>
</svg>
