<?xml version="1.0" encoding="iso-8859-1"?>
<!-- Generator: Adobe Illustrator 18.0.0, SVG Export Plug-In . SVG Version: 6.00 Build 0)  -->
<!DOCTYPE svg PUBLIC "-//W3C//DTD SVG 1.1//EN" "http://www.w3.org/Graphics/SVG/1.1/DTD/svg11.dtd">
<svg version="1.1" id="Capa_1" xmlns="http://www.w3.org/2000/svg" xmlns:xlink="http://www.w3.org/1999/xlink" x="0px" y="0px"
	 viewBox="0 0 430 430" style="enable-background:new 0 0 430 430;" xml:space="preserve">
<g>
	<path d="M215,176.54c-15.163,0-27.5,12.337-27.5,27.502v32.545h55v-32.545C242.5,188.877,230.164,176.54,215,176.54z"/>
	<path d="M323.423,117.012c-4.114,0-8.213,0.234-12.277,0.703c-4.898-20.225-15.654-38.646-31.177-53.025
		c-19.752-18.295-45.464-28.369-72.401-28.369c-49.559,0-91.801,33.842-103.422,80.719C46.495,118.332,0,165.633,0,223.588
		c0,58.77,47.81,106.58,106.577,106.58H110v30.934c0,17.964,14.614,32.578,32.577,32.578h144.845
		c17.963,0,32.578-14.614,32.578-32.578v-30.934h3.423c58.767,0,106.577-47.811,106.577-106.58
		C430,164.822,382.19,117.012,323.423,117.012z M300,276.464h-24.952c-6.252,0-11.32,5.067-11.32,11.32
		c0,6.251,5.068,11.319,11.32,11.319H300v20.962h-24.952c-6.252,0-11.32,5.068-11.32,11.318c0,6.253,5.068,11.32,11.32,11.32H300
		v18.397c0,6.945-5.631,12.578-12.578,12.578H142.577c-6.947,0-12.577-5.633-12.577-12.578V249.164
		c0-6.946,5.63-12.577,12.577-12.577h7.191v-32.545c0-35.971,29.262-65.233,65.231-65.233c35.969,0,65.231,29.263,65.231,65.233
		v32.545h7.191c6.946,0,12.578,5.631,12.578,12.577V276.464z"/>
</g>
<g>
</g>
<g>
</g>
<g>
</g>
<g>
</g>
<g>
</g>
<g>
</g>
<g>
</g>
<g>
</g>
<g>
</g>
<g>
</g>
<g>
</g>
<g>
</g>
<g>
</g>
<g>
</g>
<g>
</g>
</svg>
